<svg width="12" height="16" viewBox="0 0 12 16" fill="none" xmlns="http://www.w3.org/2000/svg">
<g id="evaPinFill0">
<g id="evaPinFill1">
<g id="evaPinFill2">
<path id="Vector" d="M6.00006 0.708008C4.46303 0.707931 2.98807 1.3145 1.89577 2.39587C0.803477 3.47725 0.182118 4.94603 0.166748 6.48299C0.166748 10.4788 5.30736 14.9267 5.52611 15.1163C5.65818 15.2293 5.82626 15.2913 6.00006 15.2913C6.17386 15.2913 6.34194 15.2293 6.47402 15.1163C6.72923 14.9267 11.8334 10.4788 11.8334 6.48299C11.818 4.94603 11.1966 3.47725 10.1044 2.39587C9.01205 1.3145 7.5371 0.707931 6.00006 0.708008ZM6.00006 8.72882C5.49531 8.72882 5.00189 8.57914 4.58221 8.29871C4.16252 8.01829 3.83541 7.61971 3.64225 7.15338C3.44909 6.68705 3.39855 6.17391 3.49702 5.67885C3.5955 5.1838 3.83856 4.72906 4.19547 4.37215C4.55239 4.01524 5.00712 3.77217 5.50218 3.6737C5.99723 3.57523 6.51037 3.62577 6.9767 3.81893C7.44303 4.01209 7.84161 4.3392 8.12204 4.75888C8.40246 5.17857 8.55214 5.67199 8.55214 6.17674C8.55214 6.85359 8.28326 7.50272 7.80465 7.98133C7.32604 8.45994 6.67691 8.72882 6.00006 8.72882Z" fill="#B3B3B3"/>
</g>
</g>
</g>
</svg>
