<svg width="80" height="80" viewBox="0 0 80 80" fill="none" xmlns="http://www.w3.org/2000/svg">
<g id="error" clip-path="url(#clip0_253_920)">
<path id="Vector" d="M40.0002 5.38477C33.1539 5.38477 26.4614 7.41492 20.7689 11.2185C15.0764 15.0221 10.6397 20.4283 8.01972 26.7534C5.39976 33.0785 4.71426 40.0385 6.04991 46.7533C7.38555 53.468 10.6823 59.6359 15.5234 64.4769C20.3644 69.318 26.5323 72.6147 33.247 73.9504C39.9618 75.286 46.9218 74.6005 53.2469 71.9806C59.572 69.3606 64.9782 64.9239 68.7818 59.2314C72.5854 53.5389 74.6155 46.8464 74.6155 40.0001C74.6155 30.8196 70.9686 22.015 64.4769 15.5234C57.9853 9.03173 49.1807 5.38477 40.0002 5.38477ZM35.7021 22.6925C35.7021 21.5449 36.1579 20.4443 36.9694 19.6329C37.7809 18.8214 38.8814 18.3655 40.029 18.3655C41.1766 18.3655 42.2771 18.8214 43.0886 19.6329C43.9001 20.4443 44.3559 21.5449 44.3559 22.6925V42.5674C44.3559 43.1357 44.244 43.6983 44.0266 44.2233C43.8091 44.7483 43.4904 45.2253 43.0886 45.627C42.6868 46.0288 42.2098 46.3476 41.6848 46.565C41.1599 46.7825 40.5972 46.8944 40.029 46.8944C39.4608 46.8944 38.8981 46.7825 38.3732 46.565C37.8482 46.3476 37.3712 46.0288 36.9694 45.627C36.5676 45.2253 36.2489 44.7483 36.0314 44.2233C35.814 43.6983 35.7021 43.1357 35.7021 42.5674V22.6925ZM40.0002 61.6348C39.0189 61.6348 38.0596 61.3438 37.2437 60.7986C36.4278 60.2534 35.7918 59.4785 35.4163 58.5719C35.0408 57.6653 34.9425 56.6677 35.134 55.7053C35.3254 54.7428 35.7979 53.8588 36.4918 53.1649C37.1857 52.471 38.0698 51.9985 39.0322 51.807C39.9946 51.6156 40.9922 51.7138 41.8989 52.0894C42.8055 52.4649 43.5803 53.1008 44.1255 53.9167C44.6707 54.7327 44.9617 55.6919 44.9617 56.6732C44.9617 57.9891 44.439 59.2511 43.5085 60.1816C42.578 61.112 41.316 61.6348 40.0002 61.6348Z" fill="#F71B1B"/>
</g>
<defs>
<clipPath id="clip0_253_920">
<rect width="80" height="80" fill="white"/>
</clipPath>
</defs>
</svg>
