<svg width="80" height="80" viewBox="0 0 80 80" fill="none" xmlns="http://www.w3.org/2000/svg">
<g id="Group 8">
<path id="Vector" d="M66.2145 0H13.7855C6.17198 0 0 6.17198 0 13.7855V66.2145C0 73.828 6.17198 80 13.7855 80H66.2145C73.828 80 80 73.828 80 66.2145V13.7855C80 6.17198 73.828 0 66.2145 0Z" fill="white"/>
<g id="Group">
<path id="Vector_2" d="M54.2985 22.5703C52.5153 22.5703 51.0664 24.0212 51.0664 25.8024C51.0664 27.5836 52.5173 29.0364 54.2985 29.0364C56.0797 29.0364 57.5306 27.5855 57.5306 25.8024C57.5306 24.0192 56.0797 22.5703 54.2985 22.5703Z" fill="black"/>
<path id="Vector_3" d="M40.2218 27.1543C33.1383 27.1543 27.374 32.9166 27.374 40.0001C27.374 47.0835 33.1363 52.8458 40.2218 52.8458C47.3072 52.8458 53.0675 47.0835 53.0675 40.0001C53.0675 32.9166 47.3052 27.1543 40.2218 27.1543ZM40.2218 48.0134C35.8042 48.0134 32.2084 44.4196 32.2084 40.0001C32.2084 35.5805 35.8022 31.9867 40.2218 31.9867C44.6413 31.9867 48.2351 35.5805 48.2351 40.0001C48.2351 44.4196 44.6413 48.0134 40.2218 48.0134Z" fill="black"/>
<path id="Vector_4" d="M54.5507 12.9277H25.4481C18.5436 12.9277 12.9268 18.5446 12.9268 25.4491V54.5516C12.9268 61.4562 18.5436 67.073 25.4481 67.073H54.5507C61.4552 67.073 67.072 61.4562 67.072 54.5516V25.4511C67.072 18.5465 61.4552 12.9277 54.5487 12.9277H54.5507ZM25.4481 61.8612C21.4179 61.8612 18.1406 58.5839 18.1406 54.5536V25.4491C18.1406 21.4188 21.4179 18.1415 25.4481 18.1415H54.5507C58.5809 18.1415 61.8582 21.4208 61.8582 25.4491V54.5516C61.8582 58.5819 58.5809 61.8592 54.5507 61.8592H25.4481V61.8612Z" fill="black"/>
</g>
</g>
</svg>
