<svg width="120" height="120" viewBox="0 0 120 120" fill="none" xmlns="http://www.w3.org/2000/svg">
<g id="&#208;&#151;&#208;&#176;&#208;&#179;&#209;&#128;&#209;&#131;&#208;&#183;&#208;&#186;&#208;&#176;" clip-path="url(#clip0_245_1062)">
<g id="Group">
<path id="Vector" d="M59.9936 21.2293C65.8559 21.2293 70.6082 16.477 70.6082 10.6147C70.6082 4.75234 65.8559 0 59.9936 0C54.1312 0 49.3789 4.75234 49.3789 10.6147C49.3789 16.477 54.1312 21.2293 59.9936 21.2293Z" fill="#026634"/>
<path id="Vector_2" d="M35.3109 27.846C41.1733 27.846 45.9256 23.0937 45.9256 17.2314C45.9256 11.369 41.1733 6.6167 35.3109 6.6167C29.4486 6.6167 24.6963 11.369 24.6963 17.2314C24.6963 23.0937 29.4486 27.846 35.3109 27.846Z" fill="#2C6F3E"/>
<path id="Vector_3" d="M17.2318 45.9251C23.0942 45.9251 27.8465 41.1728 27.8465 35.3105C27.8465 29.4481 23.0942 24.6958 17.2318 24.6958C11.3695 24.6958 6.61719 29.4481 6.61719 35.3105C6.61719 41.1728 11.3695 45.9251 17.2318 45.9251Z" fill="#44794B"/>
<path id="Vector_4" d="M10.6147 70.6082C16.477 70.6082 21.2293 65.8559 21.2293 59.9936C21.2293 54.1312 16.477 49.3789 10.6147 49.3789C4.75234 49.3789 0 54.1312 0 59.9936C0 65.8559 4.75234 70.6082 10.6147 70.6082Z" fill="#59845A"/>
<path id="Vector_5" d="M17.2318 95.304C23.0942 95.304 27.8465 90.5517 27.8465 84.6894C27.8465 78.8271 23.0942 74.0747 17.2318 74.0747C11.3695 74.0747 6.61719 78.8271 6.61719 84.6894C6.61719 90.5517 11.3695 95.304 17.2318 95.304Z" fill="#6E906A"/>
<path id="Vector_6" d="M35.3109 113.37C41.1733 113.37 45.9256 108.618 45.9256 102.756C45.9256 96.8935 41.1733 92.1411 35.3109 92.1411C29.4486 92.1411 24.6963 96.8935 24.6963 102.756C24.6963 108.618 29.4486 113.37 35.3109 113.37Z" fill="#839D7C"/>
<path id="Vector_7" d="M59.9936 119.987C65.8559 119.987 70.6082 115.235 70.6082 109.372C70.6082 103.51 65.8559 98.7578 59.9936 98.7578C54.1312 98.7578 49.3789 103.51 49.3789 109.372C49.3789 115.235 54.1312 119.987 59.9936 119.987Z" fill="#96AA8F"/>
<path id="Vector_8" d="M84.6899 113.37C90.5522 113.37 95.3045 108.618 95.3045 102.756C95.3045 96.8935 90.5522 92.1411 84.6899 92.1411C78.8275 92.1411 74.0752 96.8935 74.0752 102.756C74.0752 108.618 78.8275 113.37 84.6899 113.37Z" fill="#A9B8A2"/>
<path id="Vector_9" d="M102.756 95.304C108.619 95.304 113.371 90.5517 113.371 84.6894C113.371 78.8271 108.619 74.0747 102.756 74.0747C96.8939 74.0747 92.1416 78.8271 92.1416 84.6894C92.1416 90.5517 96.8939 95.304 102.756 95.304Z" fill="#BDC7B7"/>
<path id="Vector_10" d="M109.372 70.6082C115.235 70.6082 119.987 65.8559 119.987 59.9936C119.987 54.1312 115.235 49.3789 109.372 49.3789C103.51 49.3789 98.7578 54.1312 98.7578 59.9936C98.7578 65.8559 103.51 70.6082 109.372 70.6082Z" fill="#CFD6CC"/>
<path id="Vector_11" d="M102.756 45.9251C108.619 45.9251 113.371 41.1728 113.371 35.3105C113.371 29.4481 108.619 24.6958 102.756 24.6958C96.8939 24.6958 92.1416 29.4481 92.1416 35.3105C92.1416 41.1728 96.8939 45.9251 102.756 45.9251Z" fill="#E3E6E1"/>
<path id="Vector_12" d="M84.6899 27.846C90.5522 27.846 95.3045 23.0937 95.3045 17.2314C95.3045 11.369 90.5522 6.6167 84.6899 6.6167C78.8275 6.6167 74.0752 11.369 74.0752 17.2314C74.0752 23.0937 78.8275 27.846 84.6899 27.846Z" fill="#F6F6F6"/>
</g>
</g>
<defs>
<clipPath id="clip0_245_1062">
<rect width="120" height="120" fill="white"/>
</clipPath>
</defs>
</svg>
