<svg width="831" height="235" viewBox="0 0 831 235" fill="none" xmlns="http://www.w3.org/2000/svg">
<g clip-path="url(#clip0_224_1064)">
<path d="M161.62 0H58.1801C52.5101 0 47.9001 4.61 47.9001 10.28V40H14.1801C8.51011 40 3.90011 44.61 3.90011 50.28V135.38C2.87011 137.66 2.09011 140.69 1.89011 144.69C-0.109889 156.24 -1.80989 174.92 3.90011 190.7V224.72C3.90011 230.39 8.51011 235 14.1801 235H161.62C167.29 235 171.9 230.39 171.9 224.72V10.28C171.9 4.61 167.29 0 161.62 0ZM13.9001 50.28C13.9001 50.12 14.0201 50 14.1801 50H102.62C102.78 50 102.9 50.12 102.9 50.28V114.95C101.32 116.4 99.6501 117.91 97.9001 119.47V114.62C97.9001 113.17 96.7301 112 95.2801 112H79.5101C78.0601 112 76.8901 113.17 76.8901 114.62V128.39C76.8901 129.84 78.0601 131.01 79.5101 131.01H84.6001C78.4701 136.39 73.2801 141.86 68.8901 147.32V143.63C68.8901 142.18 68.1101 141.01 67.1401 141.01H58.4801C57.5901 137.41 56.6001 134.04 55.6201 131.01H66.2701C67.7201 131.01 68.8901 129.84 68.8901 128.39V114.62C68.8901 113.17 67.7201 112 66.2701 112H59.3801C60.0501 110.86 60.6601 109.6 61.1701 108.2C61.8701 106.29 62.3801 104.19 62.7001 102H67.4101C68.2301 102 68.8901 100.83 68.8901 99.38V85.61C68.8901 84.16 68.2301 82.99 67.4101 82.99H59.8001C58.4601 80.3 56.6701 77.74 54.3501 75.44C53.8501 74.94 53.3401 74.46 52.8101 73.99H66.2601C67.7101 73.99 68.8801 72.82 68.8801 71.37V57.6C68.8801 56.15 67.7101 54.98 66.2601 54.98H50.4901C49.0401 54.98 47.8701 56.15 47.8701 57.6V70.03C43.7901 67.1 39.6901 64.86 36.8701 63.45V57.6C36.8701 56.15 35.7001 54.98 34.2501 54.98H18.4801C17.0301 54.98 15.8601 56.15 15.8601 57.6V71.37C15.8601 72.82 17.0301 73.99 18.4801 73.99H19.8301C18.5101 77.17 16.4701 82.37 15.1301 87.07C12.9901 94.56 13.3701 104.64 18.4601 112C17.0201 112.01 15.8601 113.18 15.8601 114.61V128.38C15.8601 128.53 15.8801 128.68 15.9001 128.82C15.2601 128.51 14.5801 128.31 13.8601 128.23V50.28H13.9001ZM102.9 193.9C102.51 194.15 102.15 194.38 101.8 194.59C98.8701 196.4 95.3301 198.48 91.5901 200.69C83.5701 205.42 74.9201 210.52 67.9801 215.27C74.3401 197.25 87.0001 186.66 102.44 173.74C102.59 173.61 102.75 173.48 102.9 173.35C106.15 170.63 109.51 167.82 112.9 164.83C123.04 155.89 133.53 145.43 142.62 131.33C146.64 125.09 149.73 118.46 151.83 111.76C152.69 125.09 151.39 141.3 143.44 154.99C135.57 168.55 122.87 179.71 112.9 187.08C109 189.96 105.51 192.27 102.9 193.9ZM49.4301 80.42C56.7001 87.64 57.2101 98.64 54.6101 105.8C53.5901 108.6 52.0201 110.59 50.3401 112.01C49.9501 112.04 49.5801 112.15 49.2601 112.33C49.0201 107.31 46.4701 101.59 43.4201 97.68L42.8501 96.96C39.2801 92.45 34.4501 86.28 36.6501 71.24C40.5301 73.37 45.5301 76.54 49.4301 80.41V80.42ZM54.5201 170.58C53.4201 173.03 52.4501 175.44 51.6001 177.82C51.5301 177.71 51.4401 177.6 51.3701 177.49C54.6001 157.12 45.8001 132.96 41.6301 123.04C42.1501 122.93 42.6701 122.8 43.1601 122.63C43.3201 122.58 43.4601 122.5 43.6101 122.44C43.9101 122.4 44.3601 122.33 44.9201 122.21C48.0801 129.89 56.2401 151.89 54.5101 170.59L54.5201 170.58ZM21.9001 89C24.3301 80.48 29.6401 68.95 29.8901 68.95C29.9001 68.95 29.9001 68.97 29.8901 69C26.6301 88.81 33.9801 97 37.8901 102C41.8001 107 43.8201 115 40.8901 116C40.1801 116.24 39.3201 116.39 38.3201 116.39C35.2001 116.39 30.7801 114.89 25.8901 110C21.0001 105.11 19.8901 96 21.8901 89H21.9001ZM34.2801 131C35.3301 131 36.2301 130.38 36.6501 129.48C40.2801 138.91 45.5001 155.23 45.0201 170.09C42.8201 167.97 40.2301 165.81 37.1601 163.7C35.2101 162.36 33.4501 160.99 31.8301 159.61L34.2701 160C35.7201 160 36.8901 158.83 36.8901 157.38V143.61C36.8901 142.16 35.7201 140.99 34.2701 140.99H19.2201C18.8301 139.1 18.7901 137.38 19.0801 135.91C19.5301 134.14 19.2601 132.38 18.3901 130.98C18.4301 130.98 18.4701 130.99 18.5101 130.99H34.2801V131ZM32.6301 170.3C43.3601 177.67 47.1501 185.29 48.4001 188.77C47.1801 194.11 46.5101 199.12 46.2101 203.65L23.8401 181.28C23.1401 180.46 17.7801 173.96 13.9001 164.91C11.8401 160.1 10.2001 154.57 9.89011 148.79C9.65011 144.24 10.2101 141.21 10.9501 139.26C11.1501 142.46 12.0601 146.07 13.9001 149.91C17.0401 156.46 22.9201 163.62 32.6301 170.3ZM13.9001 181.37C16.0501 184.51 17.6901 186.4 17.8901 186.63L46.1701 214.93C46.2401 216.05 46.3201 217.11 46.4201 218.1C39.0701 215.12 26.2001 208.92 17.9201 199.38C16.3701 197.59 15.0401 195.63 13.9001 193.56C10.3001 187 8.68011 179.24 8.16011 171.59C10.0901 175.51 12.1601 178.84 13.9001 181.37ZM138.23 71H141.5C148.32 79.7 151.18 103.3 135.9 127C128.85 137.93 120.94 146.54 112.9 154.05C109.57 157.15 106.22 160.07 102.9 162.9C82.6401 180.1 63.5301 193.58 57.5201 223.2C57.3901 223.86 56.8501 224.2 56.3301 224.2C55.8101 224.2 55.3501 223.9 55.2201 223.27C53.8101 215.98 52.9201 203.83 56.4101 189.49C56.4101 189.46 56.6901 188.35 56.7101 188.29C60.7801 172.55 70.1701 154.31 89.9101 136.99C94.6401 132.97 98.9701 129.23 102.91 125.72C106.57 122.47 109.89 119.42 112.91 116.54C132.85 97.51 139.39 85.73 138.24 70.99L138.23 71ZM112.9 105.33V103H115.13C114.41 103.76 113.67 104.54 112.9 105.33ZM14.1801 225C14.0201 225 13.9001 224.88 13.9001 224.72V206.81C22.6801 215.86 34.4701 221.81 42.1001 225H14.1801ZM68.1401 225C75.1401 219.67 86.2601 213.11 95.6501 207.58C98.2001 206.08 100.65 204.63 102.9 203.28V224.72C102.9 224.88 102.78 225 102.62 225H68.1401ZM161.9 224.72C161.9 224.88 161.78 225 161.62 225H112.9V196.9C123.86 189.35 140.49 176.01 150.36 159.01C169.05 126.82 154.38 82.83 154.38 82.83C154.13 81.24 153.81 79.67 153.41 78.14C152.74 75.53 151.87 73.14 150.83 71H151.29C152.74 71 153.91 69.83 153.91 68.38V52.61C153.91 51.16 152.74 49.99 151.29 49.99H134.52C133.07 49.99 131.9 51.16 131.9 52.61V63.16C130.42 64.94 129.74 67.25 130.04 69.55C131.17 78.11 129.31 85.46 121.9 95.13V84.62C121.9 83.17 120.87 82 119.6 82H112.9V71H119.98C121.04 71 121.9 69.83 121.9 68.38V52.61C121.9 51.16 121.04 49.99 119.98 49.99H112.88C112.77 46.01 110.4 42.6 107.01 40.99H119.28C120.73 40.99 121.9 39.82 121.9 38.37V22.6C121.9 21.15 120.73 19.98 119.28 19.98H102.51C101.06 19.98 99.8901 21.15 99.8901 22.6V38.37C99.8901 38.98 100.11 39.54 100.46 39.99H87.3101C87.6601 39.54 87.8801 38.99 87.8801 38.37V22.6C87.8801 21.15 86.7101 19.98 85.2601 19.98H68.4901C67.0401 19.98 65.8701 21.15 65.8701 22.6V38.37C65.8701 38.98 66.0901 39.54 66.4401 39.99H57.8701V10.28C57.8701 10.12 57.9901 10 58.1501 10H161.59C161.75 10 161.87 10.12 161.87 10.28V224.72H161.9Z" fill="#006633"/>
<path d="M151.28 20H134.52C133.073 20 131.9 21.173 131.9 22.62V38.38C131.9 39.827 133.073 41 134.52 41H151.28C152.727 41 153.9 39.827 153.9 38.38V22.62C153.9 21.173 152.727 20 151.28 20Z" fill="#006633"/>
<path d="M95.2801 55H79.5201C78.0732 55 76.9001 56.173 76.9001 57.62V71.38C76.9001 72.827 78.0732 74 79.5201 74H95.2801C96.7271 74 97.9001 72.827 97.9001 71.38V57.62C97.9001 56.173 96.7271 55 95.2801 55Z" fill="#006633"/>
<path d="M95.2801 83H79.5201C78.0732 83 76.9001 84.173 76.9001 85.62V99.38C76.9001 100.827 78.0732 102 79.5201 102H95.2801C96.7271 102 97.9001 100.827 97.9001 99.38V85.62C97.9001 84.173 96.7271 83 95.2801 83Z" fill="#006633"/>
<path d="M251.29 117.221L261 131.641H253.4L245.07 119.081V131.641H238.2V119.081L229.87 131.641H222.27L231.98 117.221L222.7 103.281H230.3L238.2 115.761V103.281H245.07V115.761L252.97 103.281H260.57L251.29 117.221Z" fill="#006633"/>
<path d="M292.36 125.401V103.281H299.23V131.641H264.01V103.281H270.88V125.401H278.18V103.281H285.05V125.401H292.35H292.36Z" fill="#006633"/>
<path d="M318.73 132.21C314.23 132.21 310.5 130.81 307.52 128C304.57 125.19 303.1 121.68 303.1 117.47C303.1 113.26 304.57 109.76 307.52 106.98C310.47 104.14 314.21 102.73 318.73 102.73C321.42 102.73 323.91 103.32 326.2 104.49C328.49 105.66 330.3 107.26 331.61 109.29L325.68 112.53C325.02 111.42 324.08 110.57 322.87 109.96C321.66 109.35 320.27 109.05 318.72 109.05C316.03 109.05 313.89 109.82 312.32 111.36C310.74 112.87 309.96 114.91 309.96 117.48C309.96 120.05 310.75 122.08 312.32 123.6C313.89 125.14 316.03 125.91 318.72 125.91C320.24 125.91 321.62 125.6 322.87 124.98C324.12 124.36 325.05 123.51 325.68 122.43L331.61 125.67C330.32 127.7 328.53 129.3 326.24 130.47C323.95 131.64 321.44 132.23 318.72 132.23L318.73 132.21Z" fill="#006633"/>
<path d="M352.88 113.81H357.61C360.73 113.81 363.22 114.63 365.08 116.28C366.97 117.9 367.92 120.05 367.92 122.72C367.92 125.39 366.97 127.55 365.08 129.2C363.19 130.82 360.7 131.63 357.61 131.63H346.01V103.27H365.34V109.51H352.88V113.8V113.81ZM352.88 125.56H357.61C359.9 125.56 361.05 124.62 361.05 122.72C361.05 120.82 359.91 119.88 357.61 119.88H352.88V125.55V125.56Z" fill="#006633"/>
<path d="M384.89 117.101L395.46 131.641H387.64L378.02 118.521V131.641H371.15V103.281H378.02V115.591L387.21 103.281H395.03L384.89 117.091V117.101Z" fill="#006633"/>
<path d="M425.5 99.2305H424.92H423.5H422.92H420.92L403.74 135.69H405.74H406.32H407.74H408.32H410.32L427.5 99.2305H425.5Z" fill="#006633"/>
<path d="M436.22 103.281H458.56V109.521H450.83V131.641H443.96V109.521H436.23V103.281H436.22Z" fill="#006633"/>
<path d="M485.28 127.951C482.24 130.791 478.55 132.201 474.2 132.201C469.85 132.201 466.15 130.781 463.12 127.951C460.08 125.111 458.57 121.621 458.57 117.461C458.57 113.301 460.09 109.801 463.12 106.971C466.16 104.131 469.85 102.721 474.2 102.721C478.55 102.721 482.25 104.141 485.28 106.971C488.32 109.811 489.83 113.301 489.83 117.461C489.83 121.621 488.31 125.121 485.28 127.951ZM465.43 117.461C465.43 119.941 466.26 121.971 467.92 123.541C469.58 125.111 471.67 125.891 474.19 125.891C476.71 125.891 478.76 125.111 480.42 123.541C482.11 121.951 482.95 119.921 482.95 117.461C482.95 115.001 482.1 112.981 480.42 111.381C478.76 109.811 476.68 109.031 474.19 109.031C471.7 109.031 469.58 109.811 467.92 111.381C466.26 112.951 465.43 114.971 465.43 117.461Z" fill="#006633"/>
<path d="M519.13 127.951C516.09 130.791 512.4 132.201 508.05 132.201C503.7 132.201 500 130.781 496.97 127.951C493.93 125.111 492.42 121.621 492.42 117.461C492.42 113.301 493.94 109.801 496.97 106.971C500.01 104.131 503.7 102.721 508.05 102.721C512.4 102.721 516.1 104.141 519.13 106.971C522.17 109.811 523.68 113.301 523.68 117.461C523.68 121.621 522.16 125.121 519.13 127.951ZM499.28 117.461C499.28 119.941 500.11 121.971 501.77 123.541C503.43 125.111 505.52 125.891 508.04 125.891C510.56 125.891 512.61 125.111 514.27 123.541C515.96 121.951 516.8 119.921 516.8 117.461C516.8 115.001 515.95 112.981 514.27 111.381C512.61 109.811 510.53 109.031 508.04 109.031C505.55 109.031 503.43 109.811 501.77 111.381C500.11 112.951 499.28 114.971 499.28 117.461Z" fill="#006633"/>
<path d="M549.32 115.68L554.6 103.28H561.47L552.79 123.29C550.27 129.15 546.06 131.93 540.16 131.63V125.55C542.94 125.79 544.94 124.86 546.17 122.76L536.55 103.27H543.42L549.3 115.67L549.32 115.68Z" fill="#006633"/>
<path d="M578.23 117.101L588.8 131.641H580.98L571.36 118.521V131.641H564.49V103.281H571.36V115.591L580.55 103.281H588.37L578.23 117.091V117.101Z" fill="#006633"/>
<path d="M260.65 232.371C249.61 232.371 240.43 228.741 233.12 221.471C225.88 214.201 222.26 205.121 222.26 194.221C222.26 183.321 225.88 174.271 233.12 167.071C240.36 159.731 249.54 156.061 260.65 156.061C267.26 156.061 273.38 157.581 279 160.621C284.62 163.661 289.05 167.801 292.29 173.041L277.73 181.431C276.11 178.571 273.81 176.351 270.82 174.771C267.83 173.201 264.44 172.411 260.64 172.411C254.03 172.411 248.79 174.401 244.92 178.381C241.05 182.291 239.12 187.571 239.12 194.211C239.12 200.851 241.05 206.131 244.92 210.041C248.79 214.021 254.03 216.011 260.64 216.011C264.37 216.011 267.76 215.211 270.82 213.601C273.88 211.991 276.18 209.791 277.73 207.001L292.29 215.391C289.12 220.631 284.73 224.771 279.1 227.811C273.47 230.851 267.32 232.371 260.64 232.371H260.65Z" fill="#006633"/>
<path d="M300.2 230.911V157.531H317.08V230.911H300.2Z" fill="#006633"/>
<path d="M324.46 157.531H379.31V173.671H360.32V230.901H343.44V173.671H324.45V157.531H324.46Z" fill="#006633"/>
<path d="M427.62 157.531H446.82L422.03 202.711V230.911H405.15V202.711L380.36 157.531H399.56L413.59 185.831L427.62 157.531Z" fill="#006633"/>
<path d="M515.58 190.021H552.6V196.311C552.6 207.211 549.15 215.981 542.26 222.621C535.44 229.121 526.75 232.371 516.21 232.371C504.75 232.371 495.22 228.701 487.63 221.361C480.1 214.021 476.34 205.011 476.34 194.321C476.34 183.631 480.07 174.581 487.52 167.171C494.97 159.761 504.15 156.061 515.05 156.061C521.87 156.061 528.15 157.581 533.88 160.621C539.61 163.661 544.09 167.731 547.33 172.831L532.99 181.011C531.3 178.431 528.86 176.351 525.66 174.771C522.46 173.201 518.89 172.411 514.95 172.411C508.69 172.411 503.49 174.471 499.34 178.591C495.26 182.641 493.22 187.921 493.22 194.421C493.22 200.921 495.33 205.921 499.55 210.041C503.77 214.021 509.39 216.011 516.43 216.011C526.13 216.011 532.43 212.241 535.31 204.691H515.59V190.011L515.58 190.021Z" fill="#006633"/>
<path d="M619.06 230.911H600.92L587 206.801H578.98V230.911H562.1V157.531H591.63C598.66 157.531 604.64 159.981 609.56 164.871C614.48 169.761 616.94 175.701 616.94 182.691C616.94 187.091 615.69 191.221 613.2 195.061C610.7 198.901 607.42 201.871 603.34 203.971L619.06 230.911ZM591.64 173.261H578.98V192.131H591.64C593.96 192.131 595.95 191.221 597.6 189.401C599.25 187.581 600.08 185.351 600.08 182.691C600.08 180.031 599.25 177.801 597.6 175.981C595.95 174.161 593.96 173.261 591.64 173.261Z" fill="#006633"/>
<path d="M688.35 221.371C680.9 228.711 671.83 232.381 661.14 232.381C650.45 232.381 641.38 228.711 633.93 221.371C626.48 214.031 622.75 204.981 622.75 194.221C622.75 183.461 626.48 174.411 633.93 167.071C641.38 159.731 650.45 156.061 661.14 156.061C671.83 156.061 680.9 159.731 688.35 167.071C695.8 174.411 699.53 183.461 699.53 194.221C699.53 204.981 695.8 214.031 688.35 221.371ZM639.62 194.221C639.62 200.651 641.66 205.891 645.74 209.941C649.82 213.991 654.95 216.021 661.14 216.021C667.33 216.021 672.35 213.991 676.43 209.941C680.58 205.821 682.65 200.581 682.65 194.221C682.65 187.861 680.57 182.621 676.43 178.501C672.35 174.451 667.25 172.421 661.14 172.421C655.03 172.421 649.82 174.451 645.74 178.501C641.66 182.551 639.62 187.801 639.62 194.221Z" fill="#006633"/>
<path d="M707.97 207.221V157.531H724.85V205.751C724.85 212.601 728.72 216.021 736.45 216.021C744.18 216.021 748.05 212.601 748.05 205.751V157.531H764.93V207.221C764.93 214.981 762.26 221.091 756.91 225.561C751.49 230.101 744.67 232.371 736.45 232.371C728.23 232.371 721.4 230.101 715.99 225.561C710.64 221.091 707.97 214.971 707.97 207.221Z" fill="#006633"/>
<path d="M777.06 157.531H805.01C812.32 157.531 818.44 159.981 823.36 164.871C828.35 169.831 830.85 175.771 830.85 182.691C830.85 189.611 828.35 195.551 823.36 200.511C818.44 205.401 812.32 207.851 805.01 207.851H793.93V230.911H777.05V157.531H777.06ZM793.94 192.121H805.02C807.62 192.121 809.77 191.211 811.45 189.391C813.14 187.571 813.98 185.341 813.98 182.681C813.98 180.021 813.14 177.791 811.45 175.971C809.76 174.151 807.62 173.251 805.02 173.251H793.94V192.121Z" fill="#006633"/>
</g>
<defs>
<clipPath id="clip0_224_1064">
<rect width="830.85" height="235" fill="white"/>
</clipPath>
</defs>
</svg>
