<svg width="24" height="24" viewBox="0 0 24 24" fill="none" xmlns="http://www.w3.org/2000/svg">
<g id="Phone">
<path id="Vector" d="M16.2744 13.258C15.7685 12.7585 15.1368 12.7585 14.6341 13.258C14.2506 13.6383 13.8671 14.0186 13.4901 14.4053C13.3869 14.5116 13.2999 14.5342 13.1742 14.4633C12.9261 14.3279 12.6618 14.2184 12.4234 14.0701C11.3115 13.3708 10.3802 12.4717 9.55518 11.4598C9.1459 10.957 8.78174 10.4188 8.52715 9.81297C8.47559 9.69051 8.48526 9.60994 8.58516 9.51004C8.96866 9.13943 9.34249 8.75916 9.71954 8.37888C10.2448 7.85037 10.2448 7.23161 9.71632 6.69987C9.41661 6.39694 9.1169 6.10046 8.81719 5.79753C8.50782 5.48815 8.20166 5.17555 7.88907 4.8694C7.38311 4.37633 6.75146 4.37633 6.24873 4.87262C5.86201 5.2529 5.4914 5.64284 5.09824 6.01667C4.73408 6.36149 4.55038 6.78366 4.51171 7.27673C4.45048 8.07918 4.64706 8.8365 4.92421 9.57449C5.4914 11.102 6.35508 12.4588 7.40244 13.7027C8.81719 15.385 10.5059 16.7159 12.4814 17.6763C13.3708 18.1081 14.2925 18.44 15.2948 18.4948C15.9844 18.5335 16.5838 18.3595 17.064 17.8213C17.3927 17.4539 17.7633 17.1188 18.1114 16.7675C18.627 16.2454 18.6302 15.6138 18.1178 15.0981C17.5055 14.4826 16.89 13.8703 16.2744 13.258Z" fill="#B3B3B3"/>
</g>
</svg>
