<svg width="80" height="80" viewBox="0 0 80 80" fill="none" xmlns="http://www.w3.org/2000/svg">
<g id="success">
<path id="Vector" d="M39.6154 5C48.796 5 57.6005 8.64697 64.0922 15.1386C70.5838 21.6303 74.2308 30.4348 74.2308 39.6154C74.2308 48.796 70.5838 57.6005 64.0922 64.0922C57.6005 70.5838 48.796 74.2308 39.6154 74.2308C30.4348 74.2308 21.6303 70.5838 15.1386 64.0922C8.64697 57.6005 5 48.796 5 39.6154C5 30.4348 8.64697 21.6303 15.1386 15.1386C21.6303 8.64697 30.4348 5 39.6154 5ZM35.3033 46.4445L27.6137 38.75C27.3381 38.4743 27.0108 38.2557 26.6506 38.1065C26.2904 37.9573 25.9044 37.8805 25.5146 37.8805C25.1247 37.8805 24.7387 37.9573 24.3785 38.1065C24.0183 38.2557 23.6911 38.4743 23.4154 38.75C22.8586 39.3067 22.5459 40.0618 22.5459 40.8492C22.5459 41.6365 22.8586 42.3916 23.4154 42.9483L33.2066 52.7396C33.4815 53.0166 33.8085 53.2365 34.1688 53.3866C34.5291 53.5366 34.9155 53.6139 35.3058 53.6139C35.6961 53.6139 36.0825 53.5366 36.4428 53.3866C36.803 53.2365 37.1301 53.0166 37.4049 52.7396L57.6797 32.4599C57.959 32.1854 58.1813 31.8582 58.3335 31.4974C58.4858 31.1366 58.5652 30.7491 58.567 30.3575C58.5688 29.9658 58.4931 29.5777 58.3442 29.2154C58.1952 28.8532 57.976 28.524 57.6993 28.2469C57.4225 27.9698 57.0936 27.7502 56.7315 27.6009C56.3694 27.4515 55.9814 27.3753 55.5897 27.3767C55.1981 27.378 54.8105 27.4569 54.4495 27.6088C54.0885 27.7607 53.7611 27.9825 53.4863 28.2615L35.3033 46.4445Z" fill="#006633"/>
</g>
</svg>
