<svg width="80" height="80" viewBox="0 0 80 80" fill="none" xmlns="http://www.w3.org/2000/svg">
<g id="Group 9">
<path id="Vector" d="M66.2145 0H13.7855C6.17198 0 0 6.17198 0 13.7855V66.2145C0 73.828 6.17198 80 13.7855 80H66.2145C73.828 80 80 73.828 80 66.2145V13.7855C80 6.17198 73.828 0 66.2145 0Z" fill="white"/>
<g id="Group">
<path id="Vector_2" d="M39.6539 52.5554L33.5947 47.6758L39.6539 52.5554Z" fill="black"/>
<path id="Vector_3" d="M59.3451 22.355L16.4079 38.5469C14.7722 39.1642 14.8744 41.5097 16.5573 41.9815L26.977 44.9069L51.7446 29.8061C52.1161 29.58 52.4995 30.0833 52.179 30.3802L33.5945 47.677L39.6537 52.5565L39.9427 52.7905L49.8199 60.7449C51.5027 62.1643 54.092 61.26 54.5245 59.1013L61.2737 23.9966C61.4978 22.8819 60.4067 21.9559 59.3431 22.357L59.3451 22.355Z" fill="black"/>
<path id="Vector_4" d="M39.6543 52.5547L39.9433 52.7886L39.6543 52.5547Z" fill="black"/>
</g>
</g>
</svg>
