<svg width="80" height="80" viewBox="0 0 80 80" fill="none" xmlns="http://www.w3.org/2000/svg">
<g id="Group 10">
<path id="Vector" d="M66.2138 0H13.7862C6.17229 0 0 6.17229 0 13.7862V66.2138C0 73.8277 6.17229 80 13.7862 80H66.2138C73.8277 80 80 73.8277 80 66.2138V13.7862C80 6.17229 73.8277 0 66.2138 0Z" fill="white"/>
<path id="Vector_2" d="M65.8642 40.1445C65.8544 40.0541 65.8446 39.9697 65.8446 39.8716C65.6817 33.4516 63.043 27.4479 58.4195 22.9677C53.7881 18.4796 47.6665 16.0078 41.1818 16.0078C34.6971 16.0078 28.7149 18.4246 24.1051 22.8145C19.5071 27.1946 16.8272 33.0845 16.5602 39.4004C16.517 39.7459 16.517 40.1268 16.517 40.4625C16.517 44.874 17.7205 49.2188 19.996 53.0374L16.2284 64.128C16.1028 64.501 16.1597 64.8956 16.3875 65.2137C16.6152 65.5317 16.9804 65.7202 17.3632 65.7202C17.4869 65.7202 17.6106 65.7006 17.7323 65.6633L29.3589 61.9782C32.9576 63.9297 37.0432 64.9604 41.1798 64.9604C47.7784 64.9604 53.9805 62.416 58.6433 57.7964C63.312 53.1709 65.8819 47.0179 65.8819 40.4664C65.8819 40.3486 65.8701 40.2485 65.8603 40.1484L65.8642 40.1445ZM41.1818 60.651C37.534 60.651 33.9746 59.6752 30.8274 57.818C30.2973 57.5058 29.6612 57.4194 29.0722 57.6L22.5482 59.5908C22.4776 59.6124 22.4108 59.5457 22.4344 59.475L24.4114 53.3024C24.6097 52.682 24.5213 52.0027 24.1621 51.4569C22.0299 48.2253 20.8657 44.3577 20.8657 40.4586C20.8657 39.8107 20.905 39.1982 20.9894 38.5228C21.9946 28.1409 30.6743 20.3133 41.1798 20.3133C51.6854 20.3133 60.6262 28.4747 61.4527 38.8938C61.494 39.4279 61.494 39.9521 61.494 40.4586C61.494 51.5904 52.3823 60.6471 41.1798 60.6471L41.1818 60.651Z" fill="black"/>
<path id="Vector_3" d="M52.0841 45.9207C51.9231 45.8382 51.7347 45.7616 51.5148 45.6929C50.755 45.4475 49.2688 44.9901 48.1831 44.6563C47.5745 44.4698 47.0895 44.3206 46.9619 44.2794C46.8107 44.2126 46.6655 44.1733 46.5221 44.1576C44.869 43.6609 43.2552 46.435 43.2376 46.4665C43.1963 46.4684 43.1512 46.4665 43.1021 46.4606C38.3372 44.299 35.4315 38.79 35.4315 38.79C35.406 38.6428 35.4315 38.5309 35.4963 38.4288C35.4963 38.4288 38.1114 36.8424 37.7423 35.4976C37.7423 35.313 37.7011 35.1245 37.6147 34.9302C37.5735 34.8006 37.4243 34.3176 37.2378 33.709C36.904 32.6233 36.4485 31.1351 36.2011 30.3773C36.1697 30.2772 36.1383 30.1849 36.1049 30.0985V30.0946C35.5415 28.31 34.3772 28.3296 33.5723 28.6025C33.5566 28.6084 33.5389 28.6143 33.5232 28.6202C33.5016 28.628 33.4722 28.6379 33.4368 28.6516L33.427 28.6555C33.2052 28.7399 32.7575 28.9284 32.2922 29.221C32.1764 29.2857 32.0586 29.3662 31.9408 29.4605C31.7955 29.5684 31.6522 29.6862 31.5207 29.8158C30.7569 30.4617 29.3768 31.8066 29.1255 34.4983C29.0626 35.1638 29.1176 35.9059 29.2786 36.5911C29.5201 37.9517 30.0934 39.3927 30.9847 40.877C31.0082 40.9143 31.0259 40.9457 31.0377 40.9653C31.0514 40.9889 31.0711 41.0282 31.1005 41.0812C31.7523 42.2945 33.0756 44.5169 35.0369 46.6706L35.2254 46.8591C37.3791 48.8204 39.6016 50.1457 40.8149 50.7955C40.8698 50.825 40.9091 50.8465 40.9307 50.8583C40.9503 50.8701 40.9817 50.8878 41.019 50.9113C42.5033 51.8027 43.9443 52.3779 45.3049 52.6174C45.9901 52.7784 46.7342 52.8314 47.3978 52.7706C50.3348 52.4977 51.6699 50.874 52.2392 50.181L52.2942 50.1142C52.4316 49.969 52.5416 49.8237 52.6299 49.6784C54.6266 47.0338 52.0881 45.9207 52.0881 45.9207H52.0841Z" fill="black"/>
</g>
</svg>
