<svg width="172" height="235" viewBox="0 0 172 235" fill="none" xmlns="http://www.w3.org/2000/svg">
<g id="a" clip-path="url(#clip0_224_1059)">
<path id="Vector" d="M161.62 0H58.18C52.51 0 47.9 4.61 47.9 10.28V40H14.18C8.50999 40 3.89999 44.61 3.89999 50.28V135.38C2.86999 137.66 2.08999 140.69 1.88999 144.69C-0.110011 156.24 -1.81001 174.92 3.89999 190.7V224.72C3.89999 230.39 8.50999 235 14.18 235H161.62C167.29 235 171.9 230.39 171.9 224.72V10.28C171.9 4.61 167.29 0 161.62 0ZM13.9 50.28C13.9 50.12 14.02 50 14.18 50H102.62C102.78 50 102.9 50.12 102.9 50.28V114.95C101.32 116.4 99.65 117.91 97.9 119.47V114.62C97.9 113.17 96.73 112 95.28 112H79.51C78.06 112 76.89 113.17 76.89 114.62V128.39C76.89 129.84 78.06 131.01 79.51 131.01H84.6C78.47 136.39 73.28 141.86 68.89 147.32V143.63C68.89 142.18 68.11 141.01 67.14 141.01H58.48C57.59 137.41 56.6 134.04 55.62 131.01H66.27C67.72 131.01 68.89 129.84 68.89 128.39V114.62C68.89 113.17 67.72 112 66.27 112H59.38C60.05 110.86 60.66 109.6 61.17 108.2C61.87 106.29 62.38 104.19 62.7 102H67.41C68.23 102 68.89 100.83 68.89 99.38V85.61C68.89 84.16 68.23 82.99 67.41 82.99H59.8C58.46 80.3 56.67 77.74 54.35 75.44C53.85 74.94 53.34 74.46 52.81 73.99H66.26C67.71 73.99 68.88 72.82 68.88 71.37V57.6C68.88 56.15 67.71 54.98 66.26 54.98H50.49C49.04 54.98 47.87 56.15 47.87 57.6V70.03C43.79 67.1 39.69 64.86 36.87 63.45V57.6C36.87 56.15 35.7 54.98 34.25 54.98H18.48C17.03 54.98 15.86 56.15 15.86 57.6V71.37C15.86 72.82 17.03 73.99 18.48 73.99H19.83C18.51 77.17 16.47 82.37 15.13 87.07C12.99 94.56 13.37 104.64 18.46 112C17.02 112.01 15.86 113.18 15.86 114.61V128.38C15.86 128.53 15.88 128.68 15.9 128.82C15.26 128.51 14.58 128.31 13.86 128.23V50.28H13.9ZM102.9 193.9C102.51 194.15 102.15 194.38 101.8 194.59C98.87 196.4 95.33 198.48 91.59 200.69C83.57 205.42 74.92 210.52 67.98 215.27C74.34 197.25 87 186.66 102.44 173.74C102.59 173.61 102.75 173.48 102.9 173.35C106.15 170.63 109.51 167.82 112.9 164.83C123.04 155.89 133.53 145.43 142.62 131.33C146.64 125.09 149.73 118.46 151.83 111.76C152.69 125.09 151.39 141.3 143.44 154.99C135.57 168.55 122.87 179.71 112.9 187.08C109 189.96 105.51 192.27 102.9 193.9ZM49.43 80.42C56.7 87.64 57.21 98.64 54.61 105.8C53.59 108.6 52.02 110.59 50.34 112.01C49.95 112.04 49.58 112.15 49.26 112.33C49.02 107.31 46.47 101.59 43.42 97.68L42.85 96.96C39.28 92.45 34.45 86.28 36.65 71.24C40.53 73.37 45.53 76.54 49.43 80.41V80.42ZM54.52 170.58C53.42 173.03 52.45 175.44 51.6 177.82C51.53 177.71 51.44 177.6 51.37 177.49C54.6 157.12 45.8 132.96 41.63 123.04C42.15 122.93 42.67 122.8 43.16 122.63C43.32 122.58 43.46 122.5 43.61 122.44C43.91 122.4 44.36 122.33 44.92 122.21C48.08 129.89 56.24 151.89 54.51 170.59L54.52 170.58ZM21.9 89C24.33 80.48 29.64 68.95 29.89 68.95C29.9 68.95 29.9 68.97 29.89 69C26.63 88.81 33.98 97 37.89 102C41.8 107 43.82 115 40.89 116C40.18 116.24 39.32 116.39 38.32 116.39C35.2 116.39 30.78 114.89 25.89 110C21 105.11 19.89 96 21.89 89H21.9ZM34.28 131C35.33 131 36.23 130.38 36.65 129.48C40.28 138.91 45.5 155.23 45.02 170.09C42.82 167.97 40.23 165.81 37.16 163.7C35.21 162.36 33.45 160.99 31.83 159.61L34.27 160C35.72 160 36.89 158.83 36.89 157.38V143.61C36.89 142.16 35.72 140.99 34.27 140.99H19.22C18.83 139.1 18.79 137.38 19.08 135.91C19.53 134.14 19.26 132.38 18.39 130.98C18.43 130.98 18.47 130.99 18.51 130.99H34.28V131ZM32.63 170.3C43.36 177.67 47.15 185.29 48.4 188.77C47.18 194.11 46.51 199.12 46.21 203.65L23.84 181.28C23.14 180.46 17.78 173.96 13.9 164.91C11.84 160.1 10.2 154.57 9.88999 148.79C9.64999 144.24 10.21 141.21 10.95 139.26C11.15 142.46 12.06 146.07 13.9 149.91C17.04 156.46 22.92 163.62 32.63 170.3ZM13.9 181.37C16.05 184.51 17.69 186.4 17.89 186.63L46.17 214.93C46.24 216.05 46.32 217.11 46.42 218.1C39.07 215.12 26.2 208.92 17.92 199.38C16.37 197.59 15.04 195.63 13.9 193.56C10.3 187 8.67999 179.24 8.15999 171.59C10.09 175.51 12.16 178.84 13.9 181.37ZM138.23 71H141.5C148.32 79.7 151.18 103.3 135.9 127C128.85 137.93 120.94 146.54 112.9 154.05C109.57 157.15 106.22 160.07 102.9 162.9C82.64 180.1 63.53 193.58 57.52 223.2C57.39 223.86 56.85 224.2 56.33 224.2C55.81 224.2 55.35 223.9 55.22 223.27C53.81 215.98 52.92 203.83 56.41 189.49C56.41 189.46 56.69 188.35 56.71 188.29C60.78 172.55 70.17 154.31 89.91 136.99C94.64 132.97 98.97 129.23 102.91 125.72C106.57 122.47 109.89 119.42 112.91 116.54C132.85 97.51 139.39 85.73 138.24 70.99L138.23 71ZM112.9 105.33V103H115.13C114.41 103.76 113.67 104.54 112.9 105.33ZM14.18 225C14.02 225 13.9 224.88 13.9 224.72V206.81C22.68 215.86 34.47 221.81 42.1 225H14.18ZM68.14 225C75.14 219.67 86.26 213.11 95.65 207.58C98.2 206.08 100.65 204.63 102.9 203.28V224.72C102.9 224.88 102.78 225 102.62 225H68.14ZM161.9 224.72C161.9 224.88 161.78 225 161.62 225H112.9V196.9C123.86 189.35 140.49 176.01 150.36 159.01C169.05 126.82 154.38 82.83 154.38 82.83C154.13 81.24 153.81 79.67 153.41 78.14C152.74 75.53 151.87 73.14 150.83 71H151.29C152.74 71 153.91 69.83 153.91 68.38V52.61C153.91 51.16 152.74 49.99 151.29 49.99H134.52C133.07 49.99 131.9 51.16 131.9 52.61V63.16C130.42 64.94 129.74 67.25 130.04 69.55C131.17 78.11 129.31 85.46 121.9 95.13V84.62C121.9 83.17 120.87 82 119.6 82H112.9V71H119.98C121.04 71 121.9 69.83 121.9 68.38V52.61C121.9 51.16 121.04 49.99 119.98 49.99H112.88C112.77 46.01 110.4 42.6 107.01 40.99H119.28C120.73 40.99 121.9 39.82 121.9 38.37V22.6C121.9 21.15 120.73 19.98 119.28 19.98H102.51C101.06 19.98 99.89 21.15 99.89 22.6V38.37C99.89 38.98 100.11 39.54 100.46 39.99H87.31C87.66 39.54 87.88 38.99 87.88 38.37V22.6C87.88 21.15 86.71 19.98 85.26 19.98H68.49C67.04 19.98 65.87 21.15 65.87 22.6V38.37C65.87 38.98 66.09 39.54 66.44 39.99H57.87V10.28C57.87 10.12 57.99 10 58.15 10H161.59C161.75 10 161.87 10.12 161.87 10.28V224.72H161.9Z" fill="#006633"/>
<path id="Vector_2" d="M151.28 20H134.52C133.073 20 131.9 21.173 131.9 22.62V38.38C131.9 39.827 133.073 41 134.52 41H151.28C152.727 41 153.9 39.827 153.9 38.38V22.62C153.9 21.173 152.727 20 151.28 20Z" fill="#006633"/>
<path id="Vector_3" d="M95.28 55H79.52C78.073 55 76.9 56.173 76.9 57.62V71.38C76.9 72.827 78.073 74 79.52 74H95.28C96.727 74 97.9 72.827 97.9 71.38V57.62C97.9 56.173 96.727 55 95.28 55Z" fill="#006633"/>
<path id="Vector_4" d="M95.28 83H79.52C78.073 83 76.9 84.173 76.9 85.62V99.38C76.9 100.827 78.073 102 79.52 102H95.28C96.727 102 97.9 100.827 97.9 99.38V85.62C97.9 84.173 96.727 83 95.28 83Z" fill="#006633"/>
</g>
<defs>
<clipPath id="clip0_224_1059">
<rect width="171.9" height="235" fill="white"/>
</clipPath>
</defs>
</svg>
